<svg width="8" height="8" viewBox="0 0 8 8" fill="none" xmlns="http://www.w3.org/2000/svg">
<g clip-path="url(#clip0_2_29)">
<path d="M5.1956 3.99986L7.75199 1.44348C8.08229 1.11319 8.08229 0.578008 7.75199 0.247718C7.4217 -0.0825726 6.88652 -0.0825726 6.55624 0.247718L3.99986 2.80439L1.44348 0.248005C1.11319 -0.082285 0.578008 -0.082285 0.247718 0.248005C-0.0825726 0.578296 -0.0825726 1.11347 0.247718 1.44376L2.8041 4.00015L0.247718 6.55653C-0.0825726 6.88682 -0.0825726 7.422 0.247718 7.75227C0.578008 8.08258 1.11319 8.08258 1.44348 7.75227L3.99986 5.19591L6.55624 7.75227C6.88653 8.08258 7.42171 8.08258 7.75199 7.75227C8.08229 7.42198 8.08229 6.88681 7.75199 6.55653L5.1956 3.99986Z" fill="#FF0000"/>
</g>
<defs>
<clipPath id="clip0_2_29">
<rect width="8" height="8" fill="white"/>
</clipPath>
</defs>
</svg>
