<svg width="27" height="27" viewBox="0 0 27 27" fill="none" xmlns="http://www.w3.org/2000/svg">
<g clip-path="url(#clip0_2_487)">
<path d="M25.8356 18.3557C26.3889 17.6499 26.6542 16.8933 26.6204 16.1142C26.5865 15.256 26.2026 14.5841 25.8864 14.1719C26.2534 13.2572 26.3945 11.8174 25.1693 10.6995C24.2716 9.8808 22.7471 9.5138 20.6354 9.61543C19.1505 9.68319 17.9083 9.95985 17.8575 9.97114H17.8519C17.5696 10.022 17.2703 10.0841 16.9654 10.1518C16.9428 9.79046 17.0049 8.89272 17.6712 6.87139C18.4616 4.46612 18.4165 2.62547 17.5244 1.3946C16.5871 0.101631 15.0909 0 14.6505 0C14.227 0 13.8374 0.175031 13.5608 0.496863C12.934 1.22522 13.0074 2.56901 13.0865 3.19009C12.3412 5.18883 10.2521 10.0897 8.48486 11.4504C8.45098 11.473 8.42275 11.5013 8.39452 11.5295C7.87507 12.0772 7.52501 12.67 7.28787 13.1895C6.95475 13.0088 6.57645 12.9072 6.16993 12.9072H2.72576C1.42714 12.9072 0.376953 13.963 0.376953 15.256V24.431C0.376953 25.7296 1.43279 26.7798 2.72576 26.7798H6.16993C6.67244 26.7798 7.14107 26.6217 7.52501 26.3507L8.85186 26.5088C9.05512 26.537 12.6687 26.9944 16.3782 26.921C17.0501 26.9718 17.6825 27 18.2697 27C19.2803 27 20.1611 26.921 20.8951 26.7629C22.6229 26.3959 23.8029 25.6619 24.4014 24.5834C24.8588 23.7591 24.8588 22.9404 24.7854 22.421C25.909 21.4046 26.1066 20.2811 26.067 19.4906C26.0445 19.0332 25.9428 18.6437 25.8356 18.3557ZM2.72576 25.2553C2.26842 25.2553 1.90142 24.8827 1.90142 24.431V15.2503C1.90142 14.793 2.27407 14.426 2.72576 14.426H6.16993C6.62727 14.426 6.99427 14.7986 6.99427 15.2503V24.4253C6.99427 24.8827 6.62162 25.2497 6.16993 25.2497H2.72576V25.2553ZM24.3901 17.6951C24.153 17.9435 24.1078 18.3218 24.2885 18.6154C24.2885 18.6211 24.52 19.0163 24.5482 19.5583C24.5877 20.298 24.232 20.9529 23.4867 21.5119C23.2214 21.7152 23.1141 22.0652 23.227 22.3814C23.227 22.3871 23.4698 23.1324 23.0746 23.8381C22.6963 24.5157 21.855 25.0013 20.579 25.2723C19.557 25.4925 18.168 25.532 16.4629 25.3965C16.4403 25.3965 16.4121 25.3965 16.3839 25.3965C12.7534 25.4755 9.08335 25.0013 9.04383 24.9956H9.03818L8.46792 24.9279C8.5018 24.7698 8.51873 24.6004 8.51873 24.431V15.2503C8.51873 15.0075 8.47921 14.7704 8.41146 14.5502C8.51309 14.1719 8.7954 13.3306 9.46165 12.6136C11.9968 10.6035 14.4754 3.82246 14.5827 3.52886C14.6279 3.41029 14.6392 3.28043 14.6166 3.15056C14.5206 2.51819 14.5545 1.74467 14.69 1.51317C14.9892 1.51882 15.7967 1.60351 16.2822 2.27541C16.8581 3.07152 16.8355 4.49435 16.2145 6.38018C15.2659 9.25408 15.1869 10.7673 15.9378 11.4335C16.3105 11.7666 16.8073 11.7836 17.1687 11.6537C17.5131 11.5747 17.8406 11.5069 18.1511 11.4561C18.1737 11.4504 18.2019 11.4448 18.2245 11.4391C19.9579 11.0609 23.0633 10.8294 24.1417 11.8118C25.0564 12.6474 24.4071 13.7541 24.3337 13.8726C24.1248 14.1888 24.1869 14.601 24.4692 14.8551C24.4748 14.8607 25.0677 15.4197 25.0959 16.1706C25.1185 16.6731 24.8813 17.187 24.3901 17.6951Z" fill="white"/>
</g>
<defs>
<clipPath id="clip0_2_487">
<rect width="27" height="27" fill="white"/>
</clipPath>
</defs>
</svg>
