<svg width="40" height="40" viewBox="0 0 40 40" fill="none" xmlns="http://www.w3.org/2000/svg">
<path d="M15.2445 30.7667L3.6556 19.189C3.47357 18.9764 3.37846 18.703 3.38926 18.4233C3.40006 18.1437 3.51598 17.8784 3.71387 17.6805C3.91175 17.4827 4.17701 17.3667 4.45665 17.3559C4.73629 17.3451 5.00971 17.4403 5.22227 17.6223L15.2223 27.6223L34.7667 8.10006C34.9793 7.91803 35.2527 7.82291 35.5323 7.83371C35.812 7.84452 36.0772 7.96044 36.2751 8.15832C36.473 8.35621 36.5889 8.62147 36.5997 8.90111C36.6105 9.18075 36.5154 9.45417 36.3334 9.66673L15.2445 30.7667Z" fill="white"/>
</svg>
